# xmcd CD database file
#
# Track frame offsets:
#	150
#	19515
#	40852
#	69072
#
# Disc length: 1175 seconds
#
# Revision: 0
# Processed by: cddbd v1.5.1PL0 Copyright (c) Steve Scherf et al.
# Submitted via: CDex 1.51
#
DISCID=22049504
DTITLE=Organs cafe - Fide on
DYEAR=1900
DGENRE=Pop
TTITLE0=Ride on
TTITLE1=赤青・レモン色
TTITLE2=Ride on -All That Jazz mix
TTITLE3=Ride on(less vocal)
EXTD=
EXTT0=
EXTT1=
EXTT2=
EXTT3=
PLAYORDER=
